
<svg xmlns="http://www.w3.org/2000/svg" width="900" height="600" viewBox="0 0 900 600">
  <style>
    text { font-family: Arial; font-size: 14px; }
    .node { fill: white; stroke: black; stroke-width: 2; }
    .edge { stroke: black; stroke-width: 2; }
    .arrow { marker-end: url(#arrow); }
  </style>
  
  <!-- Definice šipky -->
  <defs>
    <marker id="arrow" markerWidth="10" markerHeight="10" refX="10" refY="5" orient="auto" markerUnits="strokeWidth">
      <path d="M0,0 L10,5 L0,10 Z" fill="black"/>
    </marker>
  </defs>
  

  <!-- Hrany (více spojení) -->
  <!-- Obousměrné -->
  <line class="edge" x1="125" y1="300" x2="225" y2="300"/><text x="170" y="290">4</text>
  <line class="edge" x1="275" y1="300" x2="425" y2="250"/><text x="340" y="270">6</text>
  <line class="edge" x1="425" y1="250" x2="545" y2="350"/><text x="500" y="310">5</text>
  <line class="edge" x1="575" y1="350" x2="725" y2="350"/><text x="650" y="340">3</text>
  <line class="edge" x1="350" y1="500" x2="600" y2="500"/><text x="470" y="490">7</text>
  <line class="edge" x1="250" y1="312.5" x2="350" y2="500"/><text x="270" y="400">8</text>
  <line class="edge" x1="112.5" y1="287.5" x2="287.5" y2="112.5"/><text x="200" y="180">9</text>
  <line class="edge" x1="445" y1="250" x2="495" y2="105"/><text x="455" y="180">4</text>
  <line class="edge" x1="500" y1="75" x2="700" y2="150"/><text x="600" y="100">6</text>
  <line class="edge" x1="700" y1="150" x2="550" y2="350"/><text x="610" y="250">6</text>
  <line class="edge" x1="550" y1="350" x2="350" y2="500"/><text x="450" y="410">6</text>
  
  <!-- Jednosměrné -->
  <line class="edge arrow" x1="325" y1="100" x2="475" y2="85"/><text x="400" y="85">5</text>
  <line class="edge arrow" x2="710" y2="175" x1="750" y1="325"/><text x="740" y="250">2</text>
  
  <!-- Další obousměrné -->
  <line class="edge" x1="250" y1="300" x2="550" y2="350"/><text x="400" y="315">7</text>
  <line class="edge" x1="312.5" y1="120" x2="450" y2="250"/><text x="370" y="165">3</text>

<!-- Uzly -->
  <circle class="node" cx="100" cy="300" r="25"/><text x="95" y="305">A</text>
  <circle class="node" cx="300" cy="100" r="25"/><text x="295" y="105">X1</text>
  <circle class="node" cx="500" cy="80" r="25"/><text x="495" y="85">U4</text>
  <circle class="node" cx="700" cy="150" r="25"/><text x="695" y="155">X3</text>
  <circle class="node" cx="750" cy="350" r="25"/><text x="745" y="355">U2</text>
  <circle class="node" cx="600" cy="500" r="25"/><text x="595" y="505">X5</text>
  <circle class="node" cx="350" cy="500" r="25"/><text x="345" y="505">U1</text>
  <circle class="node" cx="250" cy="300" r="25"/><text x="245" y="305">X4</text>
  <circle class="node" cx="450" cy="250" r="25"/><text x="445" y="255">U3</text>
  <circle class="node" cx="550" cy="350" r="25"/><text x="545" y="355">X2</text>

</svg>
