<svg version="1.1" xmlns="http://www.w3.org/2000/svg" xmlns:xlink="http://www.w3.org/1999/xlink" width="1148" height="641"><defs><clipPath id="CPrLHlMERZaC"><path fill="none" stroke="none" d=" M 0 0 L 1148 0 L 1148 641 L 0 641 L 0 0 Z"/></clipPath></defs><g transform="scale(1,1)" clip-path="url(#CPrLHlMERZaC)"><g><rect fill="rgb(255,255,255)" stroke="none" x="0" y="0" width="1148" height="642" fill-opacity="1"/><path fill="rgb(0,100,0)" stroke="none" paint-order="stroke fill markers" d=" M 501.34777999999983 541.1595833333333 C 501.34777999999983 531.9252135696413 497.09501698496103 523.2053812465562 489.81842748139934 517.5198882926212 C 482.5418379778376 511.83439533868625 473.0523225312845 509.81683106599684 464.0921012254751 512.0502184223479 L 471.34777999999983 541.1595833333333 Z" fill-opacity="0.09803921568627451"/><path fill="none" stroke="rgb(0,100,0)" paint-order="fill stroke markers" d=" M 501.34777999999983 541.1595833333333 C 501.34777999999983 531.9252135696413 497.09501698496103 523.2053812465562 489.81842748139934 517.5198882926212 C 482.5418379778376 511.83439533868625 473.0523225312845 509.81683106599684 464.0921012254751 512.0502184223479 L 471.34777999999983 541.1595833333333 Z" stroke-opacity="0.6980392156862745" stroke-linecap="round" stroke-linejoin="round" stroke-miterlimit="10" stroke-width="2.5"/><text fill="rgb(0,100,0)" stroke="none" font-family="geogebra-sans-serif, sans-serif" font-size="20px" font-style="normal" font-weight="normal" text-decoration="normal" x="506" y="520" text-anchor="start" dominant-baseline="alphabetic" fill-opacity="1">α = 104°</text><path fill="rgb(0,100,0)" stroke="none" paint-order="stroke fill markers" d=" M 384.27378814015685 131.69517339547764 C 394.27703436472143 122.36957342896568 396.7072137350705 107.45902718620658 390.1828488063699 95.439692261103 C 383.6584838776693 83.42035733599948 369.8311292979658 77.33476563455565 356.5611836479791 80.64237688908247 L 363.81686242250385 109.75174180006792 Z" fill-opacity="0.09803921568627451"/><path fill="none" stroke="rgb(0,100,0)" paint-order="fill stroke markers" d=" M 384.27378814015685 131.69517339547764 C 394.27703436472143 122.36957342896568 396.7072137350705 107.45902718620658 390.1828488063699 95.439692261103 C 383.6584838776693 83.42035733599948 369.8311292979658 77.33476563455565 356.5611836479791 80.64237688908247 L 363.81686242250385 109.75174180006792 Z" stroke-opacity="0.6980392156862745" stroke-linecap="round" stroke-linejoin="round" stroke-miterlimit="10" stroke-width="2.5"/><text fill="rgb(0,100,0)" stroke="none" font-family="geogebra-sans-serif, sans-serif" font-size="20px" font-style="normal" font-weight="normal" text-decoration="normal" x="405" y="110" text-anchor="start" dominant-baseline="alphabetic" fill-opacity="1">β = 151°</text><path fill="none" stroke="rgb(0,0,0)" paint-order="fill stroke markers" d=" M -5 541.1595833333333 L 1153 541.1595833333333" stroke-opacity="0.6980392156862745" stroke-linecap="round" stroke-linejoin="round" stroke-miterlimit="10" stroke-width="2.5"/><path fill="none" stroke="rgb(0,0,0)" paint-order="fill stroke markers" d=" M -5 283 L 1153 283" stroke-opacity="0.6980392156862745" stroke-linecap="round" stroke-linejoin="round" stroke-miterlimit="10" stroke-width="2.5"/><path fill="none" stroke="rgb(0,0,0)" paint-order="fill stroke markers" d=" M 497.72912040517554 647 L 335.2143223167841 -5" stroke-opacity="0.6980392156862745" stroke-linecap="round" stroke-linejoin="round" stroke-miterlimit="10" stroke-width="2.5"/><path fill="none" stroke="rgb(0,0,0)" paint-order="fill stroke markers" d=" M 864.6705079495575 647 L 256.8387059856433 -5" stroke-opacity="0.6980392156862745" stroke-linecap="round" stroke-linejoin="round" stroke-miterlimit="10" stroke-width="2.5"/></g></g></svg>