<svg version="1.1" xmlns="http://www.w3.org/2000/svg" xmlns:xlink="http://www.w3.org/1999/xlink" width="1132" height="892"><defs><clipPath id="EbomBMslNVdK"><path fill="none" stroke="none" d=" M 0 0 L 1132 0 L 1132 892 L 0 892 L 0 0 Z"/></clipPath></defs><g transform="scale(1,1)" clip-path="url(#EbomBMslNVdK)"><g><rect fill="rgb(255,255,255)" stroke="none" x="0" y="0" width="1132" height="892" fill-opacity="1"/><path fill="rgb(153,51,0)" stroke="none" paint-order="stroke fill markers" fill-rule="evenodd" d=" M 269.0145454545453 552.2445454545456 L 541.741818181818 552.2445454545456 L 450.8327272727271 370.42636363636393 Z" fill-opacity="0.09803921568627451"/><path fill="rgb(153,51,0)" stroke="none" paint-order="stroke fill markers" fill-rule="evenodd" d=" M 87.19636363636357 415.8809090909093 L 269.0145454545453 415.8809090909093 L 359.9236363636362 188.60818181818223 Z" fill-opacity="0.09803921568627451"/><path fill="rgb(153,51,0)" stroke="none" paint-order="stroke fill markers" fill-rule="evenodd" d=" M 541.741818181818 234.06272727272767 L 723.5599999999997 370.42636363636393 L 905.3781818181815 234.06272727272767 Z" fill-opacity="0.09803921568627451"/><path fill="rgb(153,51,0)" stroke="none" paint-order="stroke fill markers" fill-rule="evenodd" d=" M 632.6509090909088 415.8809090909093 L 632.6509090909088 552.2445454545456 L 996.2872727272724 552.2445454545456 Z" fill-opacity="0.09803921568627451"/><text fill="rgb(153,51,0)" stroke="none" font-family="geogebra-sans-serif, sans-serif" font-size="24px" font-style="normal" font-weight="normal" text-decoration="normal" x="406" y="573" text-anchor="start" dominant-baseline="alphabetic" fill-opacity="1">c</text><path fill="none" stroke="rgb(153,51,0)" paint-order="fill stroke markers" d=" M 269.0145454545453 552.2445454545456 L 541.741818181818 552.2445454545456" stroke-opacity="0.6980392156862745" stroke-linecap="round" stroke-linejoin="round" stroke-miterlimit="10" stroke-width="2.5"/><text fill="rgb(153,51,0)" stroke="none" font-family="geogebra-sans-serif, sans-serif" font-size="24px" font-style="normal" font-weight="normal" text-decoration="normal" x="510" y="454" text-anchor="start" dominant-baseline="alphabetic" fill-opacity="1">a</text><path fill="none" stroke="rgb(153,51,0)" paint-order="fill stroke markers" d=" M 541.741818181818 552.2445454545456 L 450.8327272727271 370.42636363636393" stroke-opacity="0.6980392156862745" stroke-linecap="round" stroke-linejoin="round" stroke-miterlimit="10" stroke-width="2.5"/><text fill="rgb(153,51,0)" stroke="none" font-family="geogebra-sans-serif, sans-serif" font-size="24px" font-style="normal" font-weight="normal" text-decoration="normal" x="348" y="450" text-anchor="start" dominant-baseline="alphabetic" fill-opacity="1">b</text><path fill="none" stroke="rgb(153,51,0)" paint-order="fill stroke markers" d=" M 450.8327272727271 370.42636363636393 L 269.0145454545453 552.2445454545456" stroke-opacity="0.6980392156862745" stroke-linecap="round" stroke-linejoin="round" stroke-miterlimit="10" stroke-width="2.5"/><text fill="rgb(153,51,0)" stroke="none" font-family="geogebra-sans-serif, sans-serif" font-size="24px" font-style="normal" font-weight="normal" text-decoration="normal" x="178" y="431" text-anchor="start" dominant-baseline="alphabetic" fill-opacity="1">f</text><path fill="none" stroke="rgb(153,51,0)" paint-order="fill stroke markers" d=" M 87.19636363636357 415.8809090909093 L 269.0145454545453 415.8809090909093" stroke-opacity="0.6980392156862745" stroke-linecap="round" stroke-linejoin="round" stroke-miterlimit="10" stroke-width="2.5"/><text fill="rgb(153,51,0)" stroke="none" font-family="geogebra-sans-serif, sans-serif" font-size="24px" font-style="normal" font-weight="normal" text-decoration="normal" x="329" y="308" text-anchor="start" dominant-baseline="alphabetic" fill-opacity="1">d</text><path fill="none" stroke="rgb(153,51,0)" paint-order="fill stroke markers" d=" M 269.0145454545453 415.8809090909093 L 359.9236363636362 188.60818181818223" stroke-opacity="0.6980392156862745" stroke-linecap="round" stroke-linejoin="round" stroke-miterlimit="10" stroke-width="2.5"/><text fill="rgb(153,51,0)" stroke="none" font-family="geogebra-sans-serif, sans-serif" font-size="24px" font-style="normal" font-weight="normal" text-decoration="normal" x="213" y="289" text-anchor="start" dominant-baseline="alphabetic" fill-opacity="1">e</text><path fill="none" stroke="rgb(153,51,0)" paint-order="fill stroke markers" d=" M 359.9236363636362 188.60818181818223 L 87.19636363636357 415.8809090909093" stroke-opacity="0.6980392156862745" stroke-linecap="round" stroke-linejoin="round" stroke-miterlimit="10" stroke-width="2.5"/><text fill="rgb(153,51,0)" stroke="none" font-family="geogebra-sans-serif, sans-serif" font-size="24px" font-style="normal" font-weight="normal" text-decoration="normal" x="617" y="324" text-anchor="start" dominant-baseline="alphabetic" fill-opacity="1">i</text><path fill="none" stroke="rgb(153,51,0)" paint-order="fill stroke markers" d=" M 541.741818181818 234.06272727272767 L 723.5599999999997 370.42636363636393" stroke-opacity="0.6980392156862745" stroke-linecap="round" stroke-linejoin="round" stroke-miterlimit="10" stroke-width="2.5"/><text fill="rgb(153,51,0)" stroke="none" font-family="geogebra-sans-serif, sans-serif" font-size="24px" font-style="normal" font-weight="normal" text-decoration="normal" x="824" y="315" text-anchor="start" dominant-baseline="alphabetic" fill-opacity="1">g</text><path fill="none" stroke="rgb(153,51,0)" paint-order="fill stroke markers" d=" M 723.5599999999997 370.42636363636393 L 905.3781818181815 234.06272727272767" stroke-opacity="0.6980392156862745" stroke-linecap="round" stroke-linejoin="round" stroke-miterlimit="10" stroke-width="2.5"/><text fill="rgb(153,51,0)" stroke="none" font-family="geogebra-sans-serif, sans-serif" font-size="24px" font-style="normal" font-weight="normal" text-decoration="normal" x="723" y="218" text-anchor="start" dominant-baseline="alphabetic" fill-opacity="1">h</text><path fill="none" stroke="rgb(153,51,0)" paint-order="fill stroke markers" d=" M 905.3781818181815 234.06272727272767 L 541.741818181818 234.06272727272767" stroke-opacity="0.6980392156862745" stroke-linecap="round" stroke-linejoin="round" stroke-miterlimit="10" stroke-width="2.5"/><text fill="rgb(153,51,0)" stroke="none" font-family="geogebra-sans-serif, sans-serif" font-size="24px" font-style="normal" font-weight="normal" text-decoration="normal" x="616" y="484" text-anchor="start" dominant-baseline="alphabetic" fill-opacity="1">l</text><path fill="none" stroke="rgb(153,51,0)" paint-order="fill stroke markers" d=" M 632.6509090909088 415.8809090909093 L 632.6509090909088 552.2445454545456" stroke-opacity="0.6980392156862745" stroke-linecap="round" stroke-linejoin="round" stroke-miterlimit="10" stroke-width="2.5"/><text fill="rgb(153,51,0)" stroke="none" font-family="geogebra-sans-serif, sans-serif" font-size="24px" font-style="normal" font-weight="normal" text-decoration="normal" x="814" y="568" text-anchor="start" dominant-baseline="alphabetic" fill-opacity="1">j</text><path fill="none" stroke="rgb(153,51,0)" paint-order="fill stroke markers" d=" M 632.6509090909088 552.2445454545456 L 996.2872727272724 552.2445454545456" stroke-opacity="0.6980392156862745" stroke-linecap="round" stroke-linejoin="round" stroke-miterlimit="10" stroke-width="2.5"/><text fill="rgb(153,51,0)" stroke="none" font-family="geogebra-sans-serif, sans-serif" font-size="24px" font-style="normal" font-weight="normal" text-decoration="normal" x="820" y="469" text-anchor="start" dominant-baseline="alphabetic" fill-opacity="1">k</text><path fill="none" stroke="rgb(153,51,0)" paint-order="fill stroke markers" d=" M 996.2872727272724 552.2445454545456 L 632.6509090909088 415.8809090909093" stroke-opacity="0.6980392156862745" stroke-linecap="round" stroke-linejoin="round" stroke-miterlimit="10" stroke-width="2.5"/><path fill="rgb(125,125,255)" stroke="none" paint-order="stroke fill markers" d=" M 270.0145454545453 552.2445454545456 C 270.0145454545453 552.7968302043764 269.5668302043761 553.2445454545456 269.0145454545453 553.2445454545456 C 268.46226070471454 553.2445454545456 268.0145454545453 552.7968302043764 268.0145454545453 552.2445454545456 C 268.0145454545453 551.6922607047147 268.46226070471454 551.2445454545456 269.0145454545453 551.2445454545456 C 269.5668302043761 551.2445454545456 270.0145454545453 551.6922607047147 270.0145454545453 552.2445454545456 Z" fill-opacity="1"/><path fill="none" stroke="rgb(0,0,0)" paint-order="fill stroke markers" d=" M 270.0145454545453 552.2445454545456 C 270.0145454545453 552.7968302043764 269.5668302043761 553.2445454545456 269.0145454545453 553.2445454545456 C 268.46226070471454 553.2445454545456 268.0145454545453 552.7968302043764 268.0145454545453 552.2445454545456 C 268.0145454545453 551.6922607047147 268.46226070471454 551.2445454545456 269.0145454545453 551.2445454545456 C 269.5668302043761 551.2445454545456 270.0145454545453 551.6922607047147 270.0145454545453 552.2445454545456 Z" stroke-opacity="1" stroke-linecap="round" stroke-linejoin="round" stroke-miterlimit="10"/><text fill="rgb(125,125,255)" stroke="none" font-family="geogebra-sans-serif, sans-serif" font-size="24px" font-style="normal" font-weight="normal" text-decoration="normal" x="236" y="567" text-anchor="start" dominant-baseline="alphabetic" fill-opacity="1">A</text><path fill="rgb(125,125,255)" stroke="none" paint-order="stroke fill markers" d=" M 542.741818181818 552.2445454545456 C 542.741818181818 552.7968302043764 542.2941029316488 553.2445454545456 541.741818181818 553.2445454545456 C 541.1895334319871 553.2445454545456 540.741818181818 552.7968302043764 540.741818181818 552.2445454545456 C 540.741818181818 551.6922607047147 541.1895334319871 551.2445454545456 541.741818181818 551.2445454545456 C 542.2941029316488 551.2445454545456 542.741818181818 551.6922607047147 542.741818181818 552.2445454545456 Z" fill-opacity="1"/><path fill="none" stroke="rgb(0,0,0)" paint-order="fill stroke markers" d=" M 542.741818181818 552.2445454545456 C 542.741818181818 552.7968302043764 542.2941029316488 553.2445454545456 541.741818181818 553.2445454545456 C 541.1895334319871 553.2445454545456 540.741818181818 552.7968302043764 540.741818181818 552.2445454545456 C 540.741818181818 551.6922607047147 541.1895334319871 551.2445454545456 541.741818181818 551.2445454545456 C 542.2941029316488 551.2445454545456 542.741818181818 551.6922607047147 542.741818181818 552.2445454545456 Z" stroke-opacity="1" stroke-linecap="round" stroke-linejoin="round" stroke-miterlimit="10"/><text fill="rgb(125,125,255)" stroke="none" font-family="geogebra-sans-serif, sans-serif" font-size="24px" font-style="normal" font-weight="normal" text-decoration="normal" x="553" y="564" text-anchor="start" dominant-baseline="alphabetic" fill-opacity="1">B</text><path fill="rgb(77,77,255)" stroke="none" paint-order="stroke fill markers" d=" M 451.8327272727271 370.42636363636393 C 451.8327272727271 370.9786483861947 451.3850120225579 371.42636363636393 450.8327272727271 371.42636363636393 C 450.2804425228963 371.42636363636393 449.8327272727271 370.9786483861947 449.8327272727271 370.42636363636393 C 449.8327272727271 369.87407888653314 450.2804425228963 369.42636363636393 450.8327272727271 369.42636363636393 C 451.3850120225579 369.42636363636393 451.8327272727271 369.87407888653314 451.8327272727271 370.42636363636393 Z" fill-opacity="1"/><path fill="none" stroke="rgb(0,0,0)" paint-order="fill stroke markers" d=" M 451.8327272727271 370.42636363636393 C 451.8327272727271 370.9786483861947 451.3850120225579 371.42636363636393 450.8327272727271 371.42636363636393 C 450.2804425228963 371.42636363636393 449.8327272727271 370.9786483861947 449.8327272727271 370.42636363636393 C 449.8327272727271 369.87407888653314 450.2804425228963 369.42636363636393 450.8327272727271 369.42636363636393 C 451.3850120225579 369.42636363636393 451.8327272727271 369.87407888653314 451.8327272727271 370.42636363636393 Z" stroke-opacity="1" stroke-linecap="round" stroke-linejoin="round" stroke-miterlimit="10"/><text fill="rgb(77,77,255)" stroke="none" font-family="geogebra-sans-serif, sans-serif" font-size="24px" font-style="normal" font-weight="normal" text-decoration="normal" x="442" y="359" text-anchor="start" dominant-baseline="alphabetic" fill-opacity="1">C</text><path fill="rgb(77,77,255)" stroke="none" paint-order="stroke fill markers" d=" M 88.19636363636357 415.8809090909093 C 88.19636363636357 416.4331938407401 87.74864838619436 416.8809090909093 87.19636363636357 416.8809090909093 C 86.64407888653278 416.8809090909093 86.19636363636357 416.4331938407401 86.19636363636357 415.8809090909093 C 86.19636363636357 415.3286243410785 86.64407888653278 414.8809090909093 87.19636363636357 414.8809090909093 C 87.74864838619436 414.8809090909093 88.19636363636357 415.3286243410785 88.19636363636357 415.8809090909093 Z" fill-opacity="1"/><path fill="none" stroke="rgb(0,0,0)" paint-order="fill stroke markers" d=" M 88.19636363636357 415.8809090909093 C 88.19636363636357 416.4331938407401 87.74864838619436 416.8809090909093 87.19636363636357 416.8809090909093 C 86.64407888653278 416.8809090909093 86.19636363636357 416.4331938407401 86.19636363636357 415.8809090909093 C 86.19636363636357 415.3286243410785 86.64407888653278 414.8809090909093 87.19636363636357 414.8809090909093 C 87.74864838619436 414.8809090909093 88.19636363636357 415.3286243410785 88.19636363636357 415.8809090909093 Z" stroke-opacity="1" stroke-linecap="round" stroke-linejoin="round" stroke-miterlimit="10"/><text fill="rgb(77,77,255)" stroke="none" font-family="geogebra-sans-serif, sans-serif" font-size="24px" font-style="normal" font-weight="normal" text-decoration="normal" x="58" y="426" text-anchor="start" dominant-baseline="alphabetic" fill-opacity="1">D</text><path fill="rgb(77,77,255)" stroke="none" paint-order="stroke fill markers" d=" M 270.0145454545453 415.8809090909093 C 270.0145454545453 416.4331938407401 269.5668302043761 416.8809090909093 269.0145454545453 416.8809090909093 C 268.46226070471454 416.8809090909093 268.0145454545453 416.4331938407401 268.0145454545453 415.8809090909093 C 268.0145454545453 415.3286243410785 268.46226070471454 414.8809090909093 269.0145454545453 414.8809090909093 C 269.5668302043761 414.8809090909093 270.0145454545453 415.3286243410785 270.0145454545453 415.8809090909093 Z" fill-opacity="1"/><path fill="none" stroke="rgb(0,0,0)" paint-order="fill stroke markers" d=" M 270.0145454545453 415.8809090909093 C 270.0145454545453 416.4331938407401 269.5668302043761 416.8809090909093 269.0145454545453 416.8809090909093 C 268.46226070471454 416.8809090909093 268.0145454545453 416.4331938407401 268.0145454545453 415.8809090909093 C 268.0145454545453 415.3286243410785 268.46226070471454 414.8809090909093 269.0145454545453 414.8809090909093 C 269.5668302043761 414.8809090909093 270.0145454545453 415.3286243410785 270.0145454545453 415.8809090909093 Z" stroke-opacity="1" stroke-linecap="round" stroke-linejoin="round" stroke-miterlimit="10"/><text fill="rgb(77,77,255)" stroke="none" font-family="geogebra-sans-serif, sans-serif" font-size="24px" font-style="normal" font-weight="normal" text-decoration="normal" x="287" y="434" text-anchor="start" dominant-baseline="alphabetic" fill-opacity="1">E</text><path fill="rgb(125,125,255)" stroke="none" paint-order="stroke fill markers" d=" M 360.9236363636362 188.60818181818223 C 360.9236363636362 189.16046656801302 360.475921113467 189.60818181818223 359.9236363636362 189.60818181818223 C 359.3713516138054 189.60818181818223 358.9236363636362 189.16046656801302 358.9236363636362 188.60818181818223 C 358.9236363636362 188.05589706835144 359.3713516138054 187.60818181818223 359.9236363636362 187.60818181818223 C 360.475921113467 187.60818181818223 360.9236363636362 188.05589706835144 360.9236363636362 188.60818181818223 Z" fill-opacity="1"/><path fill="none" stroke="rgb(0,0,0)" paint-order="fill stroke markers" d=" M 360.9236363636362 188.60818181818223 C 360.9236363636362 189.16046656801302 360.475921113467 189.60818181818223 359.9236363636362 189.60818181818223 C 359.3713516138054 189.60818181818223 358.9236363636362 189.16046656801302 358.9236363636362 188.60818181818223 C 358.9236363636362 188.05589706835144 359.3713516138054 187.60818181818223 359.9236363636362 187.60818181818223 C 360.475921113467 187.60818181818223 360.9236363636362 188.05589706835144 360.9236363636362 188.60818181818223 Z" stroke-opacity="1" stroke-linecap="round" stroke-linejoin="round" stroke-miterlimit="10"/><text fill="rgb(125,125,255)" stroke="none" font-family="geogebra-sans-serif, sans-serif" font-size="24px" font-style="normal" font-weight="normal" text-decoration="normal" x="364" y="187" text-anchor="start" dominant-baseline="alphabetic" fill-opacity="1">F</text><path fill="rgb(77,77,255)" stroke="none" paint-order="stroke fill markers" d=" M 542.741818181818 234.06272727272767 C 542.741818181818 234.61501202255846 542.2941029316488 235.06272727272767 541.741818181818 235.06272727272767 C 541.1895334319871 235.06272727272767 540.741818181818 234.61501202255846 540.741818181818 234.06272727272767 C 540.741818181818 233.51044252289688 541.1895334319871 233.06272727272767 541.741818181818 233.06272727272767 C 542.2941029316488 233.06272727272767 542.741818181818 233.51044252289688 542.741818181818 234.06272727272767 Z" fill-opacity="1"/><path fill="none" stroke="rgb(0,0,0)" paint-order="fill stroke markers" d=" M 542.741818181818 234.06272727272767 C 542.741818181818 234.61501202255846 542.2941029316488 235.06272727272767 541.741818181818 235.06272727272767 C 541.1895334319871 235.06272727272767 540.741818181818 234.61501202255846 540.741818181818 234.06272727272767 C 540.741818181818 233.51044252289688 541.1895334319871 233.06272727272767 541.741818181818 233.06272727272767 C 542.2941029316488 233.06272727272767 542.741818181818 233.51044252289688 542.741818181818 234.06272727272767 Z" stroke-opacity="1" stroke-linecap="round" stroke-linejoin="round" stroke-miterlimit="10"/><text fill="rgb(77,77,255)" stroke="none" font-family="geogebra-sans-serif, sans-serif" font-size="24px" font-style="normal" font-weight="normal" text-decoration="normal" x="514" y="229" text-anchor="start" dominant-baseline="alphabetic" fill-opacity="1">G</text><path fill="rgb(77,77,255)" stroke="none" paint-order="stroke fill markers" d=" M 724.5599999999997 370.42636363636393 C 724.5599999999997 370.9786483861947 724.1122847498306 371.42636363636393 723.5599999999997 371.42636363636393 C 723.0077152501689 371.42636363636393 722.5599999999997 370.9786483861947 722.5599999999997 370.42636363636393 C 722.5599999999997 369.87407888653314 723.0077152501689 369.42636363636393 723.5599999999997 369.42636363636393 C 724.1122847498306 369.42636363636393 724.5599999999997 369.87407888653314 724.5599999999997 370.42636363636393 Z" fill-opacity="1"/><path fill="none" stroke="rgb(0,0,0)" paint-order="fill stroke markers" d=" M 724.5599999999997 370.42636363636393 C 724.5599999999997 370.9786483861947 724.1122847498306 371.42636363636393 723.5599999999997 371.42636363636393 C 723.0077152501689 371.42636363636393 722.5599999999997 370.9786483861947 722.5599999999997 370.42636363636393 C 722.5599999999997 369.87407888653314 723.0077152501689 369.42636363636393 723.5599999999997 369.42636363636393 C 724.1122847498306 369.42636363636393 724.5599999999997 369.87407888653314 724.5599999999997 370.42636363636393 Z" stroke-opacity="1" stroke-linecap="round" stroke-linejoin="round" stroke-miterlimit="10"/><text fill="rgb(77,77,255)" stroke="none" font-family="geogebra-sans-serif, sans-serif" font-size="24px" font-style="normal" font-weight="normal" text-decoration="normal" x="717" y="411" text-anchor="start" dominant-baseline="alphabetic" fill-opacity="1">H</text><path fill="rgb(77,77,255)" stroke="none" paint-order="stroke fill markers" d=" M 906.3781818181815 234.06272727272767 C 906.3781818181815 234.61501202255846 905.9304665680123 235.06272727272767 905.3781818181815 235.06272727272767 C 904.8258970683506 235.06272727272767 904.3781818181815 234.61501202255846 904.3781818181815 234.06272727272767 C 904.3781818181815 233.51044252289688 904.8258970683506 233.06272727272767 905.3781818181815 233.06272727272767 C 905.9304665680123 233.06272727272767 906.3781818181815 233.51044252289688 906.3781818181815 234.06272727272767 Z" fill-opacity="1"/><path fill="none" stroke="rgb(0,0,0)" paint-order="fill stroke markers" d=" M 906.3781818181815 234.06272727272767 C 906.3781818181815 234.61501202255846 905.9304665680123 235.06272727272767 905.3781818181815 235.06272727272767 C 904.8258970683506 235.06272727272767 904.3781818181815 234.61501202255846 904.3781818181815 234.06272727272767 C 904.3781818181815 233.51044252289688 904.8258970683506 233.06272727272767 905.3781818181815 233.06272727272767 C 905.9304665680123 233.06272727272767 906.3781818181815 233.51044252289688 906.3781818181815 234.06272727272767 Z" stroke-opacity="1" stroke-linecap="round" stroke-linejoin="round" stroke-miterlimit="10"/><text fill="rgb(77,77,255)" stroke="none" font-family="geogebra-sans-serif, sans-serif" font-size="24px" font-style="normal" font-weight="normal" text-decoration="normal" x="909" y="232" text-anchor="start" dominant-baseline="alphabetic" fill-opacity="1">I</text><path fill="rgb(77,77,255)" stroke="none" paint-order="stroke fill markers" d=" M 633.6509090909088 415.8809090909093 C 633.6509090909088 416.4331938407401 633.2031938407397 416.8809090909093 632.6509090909088 416.8809090909093 C 632.098624341078 416.8809090909093 631.6509090909088 416.4331938407401 631.6509090909088 415.8809090909093 C 631.6509090909088 415.3286243410785 632.098624341078 414.8809090909093 632.6509090909088 414.8809090909093 C 633.2031938407397 414.8809090909093 633.6509090909088 415.3286243410785 633.6509090909088 415.8809090909093 Z" fill-opacity="1"/><path fill="none" stroke="rgb(0,0,0)" paint-order="fill stroke markers" d=" M 633.6509090909088 415.8809090909093 C 633.6509090909088 416.4331938407401 633.2031938407397 416.8809090909093 632.6509090909088 416.8809090909093 C 632.098624341078 416.8809090909093 631.6509090909088 416.4331938407401 631.6509090909088 415.8809090909093 C 631.6509090909088 415.3286243410785 632.098624341078 414.8809090909093 632.6509090909088 414.8809090909093 C 633.2031938407397 414.8809090909093 633.6509090909088 415.3286243410785 633.6509090909088 415.8809090909093 Z" stroke-opacity="1" stroke-linecap="round" stroke-linejoin="round" stroke-miterlimit="10"/><text fill="rgb(77,77,255)" stroke="none" font-family="geogebra-sans-serif, sans-serif" font-size="24px" font-style="normal" font-weight="normal" text-decoration="normal" x="612" y="404" text-anchor="start" dominant-baseline="alphabetic" fill-opacity="1">J</text><path fill="rgb(125,125,255)" stroke="none" paint-order="stroke fill markers" d=" M 633.6509090909088 552.2445454545456 C 633.6509090909088 552.7968302043764 633.2031938407397 553.2445454545456 632.6509090909088 553.2445454545456 C 632.098624341078 553.2445454545456 631.6509090909088 552.7968302043764 631.6509090909088 552.2445454545456 C 631.6509090909088 551.6922607047147 632.098624341078 551.2445454545456 632.6509090909088 551.2445454545456 C 633.2031938407397 551.2445454545456 633.6509090909088 551.6922607047147 633.6509090909088 552.2445454545456 Z" fill-opacity="1"/><path fill="none" stroke="rgb(0,0,0)" paint-order="fill stroke markers" d=" M 633.6509090909088 552.2445454545456 C 633.6509090909088 552.7968302043764 633.2031938407397 553.2445454545456 632.6509090909088 553.2445454545456 C 632.098624341078 553.2445454545456 631.6509090909088 552.7968302043764 631.6509090909088 552.2445454545456 C 631.6509090909088 551.6922607047147 632.098624341078 551.2445454545456 632.6509090909088 551.2445454545456 C 633.2031938407397 551.2445454545456 633.6509090909088 551.6922607047147 633.6509090909088 552.2445454545456 Z" stroke-opacity="1" stroke-linecap="round" stroke-linejoin="round" stroke-miterlimit="10"/><text fill="rgb(125,125,255)" stroke="none" font-family="geogebra-sans-serif, sans-serif" font-size="24px" font-style="normal" font-weight="normal" text-decoration="normal" x="609" y="592" text-anchor="start" dominant-baseline="alphabetic" fill-opacity="1">K</text><path fill="rgb(77,77,255)" stroke="none" paint-order="stroke fill markers" d=" M 997.2872727272724 552.2445454545456 C 997.2872727272724 552.7968302043764 996.8395574771032 553.2445454545456 996.2872727272724 553.2445454545456 C 995.7349879774415 553.2445454545456 995.2872727272724 552.7968302043764 995.2872727272724 552.2445454545456 C 995.2872727272724 551.6922607047147 995.7349879774415 551.2445454545456 996.2872727272724 551.2445454545456 C 996.8395574771032 551.2445454545456 997.2872727272724 551.6922607047147 997.2872727272724 552.2445454545456 Z" fill-opacity="1"/><path fill="none" stroke="rgb(0,0,0)" paint-order="fill stroke markers" d=" M 997.2872727272724 552.2445454545456 C 997.2872727272724 552.7968302043764 996.8395574771032 553.2445454545456 996.2872727272724 553.2445454545456 C 995.7349879774415 553.2445454545456 995.2872727272724 552.7968302043764 995.2872727272724 552.2445454545456 C 995.2872727272724 551.6922607047147 995.7349879774415 551.2445454545456 996.2872727272724 551.2445454545456 C 996.8395574771032 551.2445454545456 997.2872727272724 551.6922607047147 997.2872727272724 552.2445454545456 Z" stroke-opacity="1" stroke-linecap="round" stroke-linejoin="round" stroke-miterlimit="10"/><text fill="rgb(77,77,255)" stroke="none" font-family="geogebra-sans-serif, sans-serif" font-size="24px" font-style="normal" font-weight="normal" text-decoration="normal" x="1000" y="550" text-anchor="start" dominant-baseline="alphabetic" fill-opacity="1">L</text></g></g></svg>